<?xml version="1.0" encoding="UTF-8" standalone="no"?>
<!DOCTYPE svg PUBLIC "-//W3C//DTD SVG 1.1//EN" "http://www.w3.org/Graphics/SVG/1.1/DTD/svg11.dtd">
<svg xmlns="http://www.w3.org/2000/svg" version="1.1" viewBox="0.00 0.00 100.00 111.00">
<path fill="#98a0c1" d="
  M 41.91 13.24
  C 54.05 11.20 65.18 15.90 66.25 29.63
  A 1.12 1.10 -75.0 0 0 66.72 30.46
  Q 68.10 31.46 70.61 32.62
  C 77.91 36.00 80.34 42.42 81.47 50.52
  Q 83.97 68.36 79.80 85.82
  C 77.95 93.53 73.85 99.59 66.52 102.00
  Q 47.90 108.15 28.35 102.37
  C 20.98 100.19 17.03 95.44 14.62 88.45
  Q 11.57 79.58 10.88 70.37
  C 9.83 56.31 10.47 37.13 25.92 30.95
  A 0.86 0.85 82.3 0 0 26.46 30.23
  Q 27.22 22.14 32.71 17.30
  Q 36.25 14.18 41.91 13.24
  Z
  M 37.67 28.91
  L 56.43 28.85
  A 0.20 0.20 0.0 0 0 56.63 28.65
  L 56.63 27.80
  A 7.30 4.45 -0.2 0 0 49.31 23.37
  L 44.75 23.39
  A 7.30 4.45 -0.2 0 0 37.47 27.86
  L 37.47 28.71
  A 0.20 0.20 0.0 0 0 37.67 28.91
  Z
  M 69.16 44.77
  C 66.50 37.94 47.56 38.62 41.62 38.85
  C 35.23 39.10 25.62 39.45 23.31 46.39
  C 20.35 55.28 20.95 66.50 21.64 75.75
  Q 22.11 81.98 23.81 85.99
  C 27.37 94.39 34.24 94.64 43.22 94.80
  C 50.67 94.94 61.20 96.18 67.05 89.99
  Q 69.30 87.61 70.35 82.98
  C 73.09 70.81 73.80 56.66 69.16 44.77
  Z"
/>
<g>
<rect fill="#98a0c1" x="-4.81" y="-12.03" transform="translate(36.61,66.52) rotate(0.1)" width="9.62" height="24.06" rx="4.59"/>
<rect fill="#98a0c1" x="-4.87" y="-12.07" transform="translate(56.92,66.61) rotate(0.1)" width="9.74" height="24.14" rx="4.65"/>
</g>
</svg>
