<?xml version="1.0" encoding="UTF-8" standalone="no"?>
<!DOCTYPE svg PUBLIC "-//W3C//DTD SVG 1.1//EN" "http://www.w3.org/Graphics/SVG/1.1/DTD/svg11.dtd">
<svg xmlns="http://www.w3.org/2000/svg" version="1.1" viewBox="0.00 0.00 115.00 115.00">
<g>
<path fill="#98a0c1" d="
  M 85.91 17.57
  C 93.49 27.62 79.61 40.44 73.32 47.07
  Q 64.66 56.21 53.80 66.05
  C 46.65 72.52 33.73 82.71 24.07 74.65
  C 16.95 68.70 17.94 59.86 23.12 52.84
  Q 30.05 43.43 34.25 39.01
  Q 47.70 24.84 58.75 15.51
  C 69.10 6.77 77.63 6.59 85.91 17.57
  Z
  M 41.76 48.89
  L 47.90 55.03
  A 2.05 2.05 0.0 0 0 50.79 55.03
  L 67.41 38.41
  A 17.79 4.56 -45.0 0 0 76.77 22.61
  L 74.18 20.02
  A 17.79 4.56 -45.0 0 0 58.38 29.38
  L 41.76 46.00
  A 2.05 2.05 0.0 0 0 41.76 48.89
  Z
  M 40.22 61.84
  L 34.61 56.45
  A 0.99 0.99 0.0 0 0 33.21 56.48
  L 33.12 56.57
  A 8.99 4.86 -46.2 0 0 30.41 66.42
  L 30.44 66.45
  A 8.99 4.86 -46.2 0 0 40.17 63.32
  L 40.25 63.24
  A 0.99 0.99 0.0 0 0 40.22 61.84
  Z"
/>
<circle fill="#98a0c1" cx="12.02" cy="84.61" r="5.87"/>
<rect fill="#98a0c1" x="24.69" y="91.20" width="62.96" height="10.28" rx="4.81"/>
</g>
</svg>
